<svg width="111" height="111" viewBox="0 0 111 111" fill="none" xmlns="http://www.w3.org/2000/svg">
<path d="M98.2459 99.825C81.3459 113.625 28.6459 113.625 12.0459 99.825C-4.85407 86.025 -3.15407 27.125 12.0459 11.625C27.2459 -3.875 83.0459 -3.875 98.2459 11.625C113.446 27.125 115.146 86.025 98.2459 99.825Z" fill="#3355DE"/>
<path d="M80.246 84.625H30.246C27.7744 84.625 25.746 82.5966 25.746 80.125V30.125C25.746 27.6534 27.7744 25.625 30.246 25.625H80.246C82.7175 25.625 84.746 27.6534 84.746 30.125V80.125C84.746 82.5966 82.7175 84.625 80.246 84.625Z" fill="#3B62FF" stroke="white" stroke-width="3"/>
<path d="M49.046 41.025C49.046 41.825 48.346 42.525 47.546 42.525H42.146V47.925C42.146 48.725 41.446 49.425 40.646 49.425C39.846 49.425 39.146 48.725 39.146 47.925V42.525H33.746C32.946 42.525 32.246 41.825 32.246 41.025C32.246 40.225 32.946 39.525 33.746 39.525H39.146V34.125C39.146 33.325 39.846 32.625 40.646 32.625C41.446 32.625 42.146 33.325 42.146 34.125V39.525H47.546C48.346 39.525 49.046 40.225 49.046 41.025Z" fill="#FAFAFA"/>
<path d="M47.546 71.5249H33.746C32.946 71.5249 32.246 70.8249 32.246 70.0249C32.246 69.2249 32.946 68.5249 33.746 68.5249H47.546C48.346 68.5249 49.046 69.2249 49.046 70.0249C49.046 70.8249 48.346 71.5249 47.546 71.5249Z" fill="#FAFAFA"/>
<path d="M76.5459 42.5249H62.8459C62.0459 42.5249 61.3459 41.8249 61.3459 41.0249C61.3459 40.2249 62.0459 39.5249 62.8459 39.5249H76.6459C77.4459 39.5249 78.1459 40.2249 78.1459 41.0249C78.1459 41.8249 77.4459 42.5249 76.5459 42.5249Z" fill="#FAFAFA"/>
<path d="M75.6459 73.9249C76.2459 74.5249 76.2459 75.4249 75.6459 76.0249C75.3459 76.3249 74.9459 76.4249 74.5459 76.4249C74.1459 76.4249 73.7459 76.2249 73.4459 76.0249L69.6459 72.2249L65.8459 76.0249C65.5459 76.3249 65.1459 76.4249 64.7459 76.4249C64.3459 76.4249 63.9459 76.2249 63.6459 76.0249C63.0459 75.4249 63.0459 74.5249 63.6459 73.9249L67.4459 70.1249L63.6459 66.3249C63.0459 65.7249 63.0459 64.8249 63.6459 64.2249C64.2459 63.6249 65.1459 63.6249 65.7459 64.2249L69.5459 68.0249L73.3459 64.2249C73.9459 63.6249 74.8459 63.6249 75.4459 64.2249C76.0459 64.8249 76.0459 65.7249 75.4459 66.3249L71.6459 70.1249L75.6459 73.9249Z" fill="#FAFAFA"/>
<path d="M42.246 64.9249C42.246 65.8249 41.546 66.5249 40.646 66.5249C39.746 66.5249 39.046 65.8249 39.046 64.9249C39.046 64.0249 39.746 63.3249 40.646 63.3249C41.546 63.2249 42.246 64.0249 42.246 64.9249Z" fill="#FAFAFA"/>
<path d="M42.246 75.225C42.246 76.125 41.546 76.825 40.646 76.825C39.746 76.825 39.046 76.125 39.046 75.225C39.046 74.325 39.746 73.625 40.646 73.625C41.546 73.625 42.246 74.325 42.246 75.225Z" fill="#FAFAFA"/>
</svg>
