<svg width="66" height="67" viewBox="0 0 66 67" fill="none" xmlns="http://www.w3.org/2000/svg">
<path d="M58.8029 59.8628C48.6815 68.1197 17.1187 68.1197 7.19707 59.8628C-2.92434 51.6059 -1.85893 16.3141 7.19707 6.99176C16.2531 -2.33059 49.7469 -2.33059 58.8029 6.99176C67.8589 16.3141 68.9243 51.6059 58.8029 59.8628Z" fill="#FF415B"/>
<path d="M50.6085 33.1648C53.0722 37.1601 53.7381 41.1554 52.0068 44.1519C50.2755 47.1484 46.48 48.5467 41.8188 48.4135C39.6214 52.542 36.4918 55.0724 33.0292 55.0724C29.5666 55.0724 26.4369 52.542 24.2395 48.4135C19.5784 48.5467 15.7828 47.1484 14.0515 44.1519C12.2537 41.1554 12.9195 37.1601 15.3833 33.1648C12.9195 29.1696 12.2537 25.1743 13.985 22.1778C15.7162 19.1813 19.5118 17.783 24.173 17.9161C26.3704 13.7877 29.5 11.2573 32.9626 11.2573C36.4252 11.2573 39.5548 13.7877 41.7522 17.9161C46.4134 17.783 50.2089 19.1813 51.9402 22.1778C53.7381 25.1743 53.0722 29.1696 50.6085 33.1648Z" fill="#F58374"/>
<path d="M32.963 56.0712C25.5717 56.0712 19.7119 46.0163 19.7119 33.1648C19.7119 20.3133 25.5051 10.1919 32.963 10.1919C40.4208 10.1919 46.214 20.3133 46.214 33.1648C46.214 46.0163 40.4208 56.0712 32.963 56.0712ZM32.963 12.1895C26.7703 12.1895 21.7096 21.5785 21.7096 33.1648C21.7096 44.7512 26.7703 54.0735 32.963 54.0735C39.1557 54.0735 44.2164 44.6846 44.2164 33.1648C44.2164 21.6451 39.1557 12.1895 32.963 12.1895Z" fill="#FAFAFA"/>
<path d="M42.3519 49.479C37.5575 49.479 31.8975 47.8809 26.3041 44.6847C15.1839 38.2256 9.39072 28.1042 13.1197 21.7117C16.8486 15.2527 28.5015 15.2527 39.6218 21.7117C50.742 28.1042 56.5352 38.159 52.8728 44.6181C51.0084 47.8143 47.1462 49.479 42.3519 49.479ZM23.5074 18.8484C19.5121 18.8484 16.3159 20.1136 14.7844 22.644C11.6547 28.0376 17.3147 37.0936 27.3029 42.8868C37.2912 48.6799 47.9453 49.0129 51.0749 43.6192C54.2046 38.2256 48.5446 29.1696 38.5564 23.3764C33.3625 20.38 27.9688 18.8484 23.5074 18.8484Z" fill="#FAFAFA"/>
<path d="M23.5739 49.4789C18.7795 49.4789 14.984 47.8808 13.1195 44.618C9.39059 38.159 15.2504 28.1041 26.3706 21.6451C37.4908 15.186 49.1438 15.186 52.8727 21.6451C56.6016 28.1041 50.7419 38.159 39.6216 44.618C34.0282 47.8142 28.3682 49.4789 23.5739 49.4789ZM27.3694 23.3764C17.3812 29.1695 11.7878 38.2255 14.8508 43.6192C17.9805 49.0128 28.6346 48.6799 38.6228 42.8867C48.611 37.0935 54.2045 28.0375 51.1414 22.6439C48.0118 17.3168 37.3576 17.6498 27.3694 23.3764Z" fill="#FAFAFA"/>
<path d="M32.9629 38.159C35.6843 38.159 37.8905 35.9529 37.8905 33.2315C37.8905 30.5101 35.6843 28.304 32.9629 28.304C30.2415 28.304 28.0354 30.5101 28.0354 33.2315C28.0354 35.9529 30.2415 38.159 32.9629 38.159Z" fill="#FAFAFA"/>
</svg>
