<svg width="101" height="101" viewBox="0 0 101 101" fill="none" xmlns="http://www.w3.org/2000/svg">
<path d="M89.3287 90.7644C73.9626 103.312 26.0459 103.312 10.9526 90.7644C-4.41349 78.217 -2.86779 24.663 10.9526 10.5699C24.773 -3.52329 75.5083 -3.52329 89.3287 10.5699C103.149 24.663 104.695 78.217 89.3287 90.7644Z" fill="#00CB75"/>
<path d="M66.1433 50.3943C64.9613 53.3039 63.0519 56.2134 60.5061 58.7593C57.9602 61.3051 55.0507 63.2146 52.1411 64.3966C46.1402 66.8515 39.9574 66.3059 36.1386 62.3962C32.3198 58.5774 31.7742 52.3946 34.1383 46.3937C35.3203 43.4841 37.2297 40.5746 39.7755 38.0287C47.504 30.3002 58.4148 28.6636 64.2339 34.3918C68.0527 38.2106 68.5074 44.3934 66.1433 50.3943Z" fill="#3CE19B"/>
<path d="M45.0489 67.2153C41.2301 67.2153 37.775 65.9423 35.2292 63.3965C31.6832 59.8504 25.7731 59.3958 19.7722 62.1235C19.0448 62.3963 18.3174 62.1235 17.9537 61.4871C17.6809 60.7597 17.9537 60.0323 18.5902 59.6686C25.6822 56.4863 32.6833 57.2137 37.0477 61.4871C42.2303 66.6697 52.3228 65.0331 59.5058 57.8501C63.0518 54.3041 65.3249 49.9398 65.9613 45.6664C66.5978 41.4839 65.5976 37.847 63.1427 35.392C58.7784 31.0277 58.051 23.9357 61.3242 16.9345C61.597 16.2072 62.4153 15.9344 63.1427 16.2981C63.8701 16.5709 64.1429 17.3892 63.7792 18.1166C61.0515 24.1175 61.597 30.0275 65.0521 33.5736C68.1435 36.665 69.4164 41.1202 68.689 46.2119C67.9617 51.1218 65.4158 55.9408 61.4152 59.9414C56.6871 64.6694 50.5043 67.2153 45.0489 67.2153Z" fill="#FAFAFA"/>
<path d="M66.1428 51.7584C65.7791 51.7584 65.4154 51.6674 65.1426 51.3946L47.1397 33.3918C46.5942 32.8463 46.5942 32.0279 47.1397 31.4824C47.6853 30.9369 48.5036 30.9369 49.0491 31.4824L67.052 49.4853C67.5975 50.0308 67.5975 50.8491 67.052 51.3946C66.8702 51.6674 66.5065 51.7584 66.1428 51.7584Z" fill="#FAFAFA"/>
<path d="M60.5967 60.1232C60.233 60.1232 59.8693 60.0323 59.5965 59.7596L38.8659 39.029C38.3204 38.4835 38.3204 37.6651 38.8659 37.1196C39.4115 36.5741 40.2298 36.5741 40.7753 37.1196L61.5059 57.8502C62.0514 58.3957 62.0514 59.214 61.5059 59.7596C61.2331 60.0323 60.9604 60.1232 60.5967 60.1232Z" fill="#FAFAFA"/>
<path d="M52.2318 65.7606C51.8681 65.7606 51.5044 65.6696 51.2316 65.3969L33.2287 47.394C32.6832 46.8485 32.6832 46.0301 33.2287 45.4846C33.7743 44.9391 34.5926 44.9391 35.1381 45.4846L53.141 63.4875C53.6865 64.033 53.6865 64.8513 53.141 65.3969C52.8682 65.6696 52.5045 65.7606 52.2318 65.7606Z" fill="#FAFAFA"/>
<path d="M37.6842 80.7631C37.5024 80.7631 37.3205 80.763 37.1387 80.6721C36.4113 80.3994 36.1385 79.581 36.5022 78.8537C39.2299 72.8527 38.6844 66.9427 35.2293 63.3967C28.9556 57.1229 30.5922 45.3029 38.8662 37.0288C47.1403 28.7548 58.9603 27.1182 65.234 33.3919C68.7801 36.9379 74.6901 37.3925 80.691 34.6648C81.4184 34.392 82.1458 34.6648 82.5095 35.3013C82.7823 36.0287 82.5095 36.7561 81.8731 37.1198C74.781 40.3021 67.7799 39.5747 63.4156 35.3013C58.2329 30.1186 48.1404 31.7553 40.9575 38.9382C33.7745 46.1212 32.1379 56.2137 37.3205 61.3963C41.6849 65.7607 42.4122 72.8527 39.139 79.8538C38.7753 80.4903 38.2298 80.7631 37.6842 80.7631Z" fill="#FAFAFA"/>
</svg>
