<svg width="92" height="92" viewBox="0 0 92 92" fill="none" xmlns="http://www.w3.org/2000/svg">
<path d="M81.9519 83.2691C67.8547 94.7803 23.895 94.7803 10.0481 83.2691C-4.04903 71.7578 -2.63097 22.6263 10.0481 9.697C22.7272 -3.23233 69.2728 -3.23233 81.9519 9.697C94.631 22.6263 96.049 71.7578 81.9519 83.2691Z" fill="#4BB9EC"/>
<path d="M66.2698 69.0051H25.8135L34.4886 51.6548H57.5946L66.2698 69.0051Z" fill="#63D4EB"/>
<path d="M66.27 70.2563H25.8137C25.3967 70.2563 24.9796 70.0061 24.7293 69.6724C24.4791 69.3388 24.4791 68.8383 24.6459 68.4212L33.3211 51.0709C33.5713 50.6538 33.9884 50.4036 34.4055 50.4036H57.5115C58.012 50.4036 58.429 50.6538 58.5959 51.0709L67.271 68.4212C67.4379 68.8383 67.4379 69.2554 67.1876 69.6724C67.1042 70.0895 66.6871 70.2563 66.27 70.2563ZM27.8157 67.7539H64.1847L56.7607 52.906H35.2396L27.8157 67.7539Z" fill="#FAFAFA"/>
<path d="M57.5948 52.906H34.4888C34.0717 52.906 33.6546 52.6558 33.4044 52.3221C33.1542 51.9885 33.1542 51.488 33.321 51.0709L38.9932 39.8099V22.7932C38.9932 22.1259 39.5771 21.542 40.2444 21.542H51.8391C52.5064 21.542 53.0903 22.1259 53.0903 22.7932V39.8099L58.7626 51.0709C58.9294 51.488 58.9294 51.9051 58.6792 52.3221C58.4289 52.7392 58.0118 52.906 57.5948 52.906ZM36.4908 50.4036H55.5928L50.7547 40.644C50.6713 40.4772 50.5879 40.3104 50.5879 40.0601V23.961H41.4957V40.0601C41.4957 40.227 41.4122 40.4772 41.3288 40.644L36.4908 50.4036Z" fill="#FAFAFA"/>
<path d="M54.842 24.0444H37.158C36.4906 24.0444 35.9067 23.4605 35.9067 22.7932C35.9067 22.1259 36.4906 21.542 37.158 21.542H54.842C55.5093 21.542 56.0932 22.1259 56.0932 22.7932C56.0932 23.4605 55.5093 24.0444 54.842 24.0444Z" fill="#FAFAFA"/>
</svg>
