<svg width="33" height="33" viewBox="0 0 33 33" fill="none" xmlns="http://www.w3.org/2000/svg">
<path d="M29.3958 29.8683C24.3392 33.9973 8.57104 33.9973 3.60422 29.8683C-1.45237 25.7392 -0.943718 8.11597 3.60422 3.47827C8.15215 -1.15942 24.8479 -1.15942 29.3958 3.47827C33.9437 8.11597 34.4524 25.7392 29.3958 29.8683Z" fill="#FFCD00"/>
<path d="M7.19502 19.2463L14.9445 17.092L7.19502 19.2463Z" fill="#D3F8F7"/>
<path d="M24.4588 18.3488L16.1707 16.1945L20.4793 8.77417C20.599 8.56473 20.5392 8.29544 20.3297 8.17576C18.8636 7.33798 17.188 6.88916 15.5125 6.88916C10.2165 6.88916 5.87805 11.1977 5.87805 16.5236C5.87805 17.3913 5.99773 18.259 6.2371 19.0968C7.28432 22.8369 10.426 25.5596 14.2558 26.0683C14.6747 26.1281 15.0936 26.158 15.5125 26.158C19.9108 26.158 23.7407 23.1959 24.8477 18.9472C24.8477 18.6779 24.6981 18.4086 24.4588 18.3488ZM6.74575 16.4638C6.74575 11.6465 10.6653 7.72695 15.4826 7.72695C16.8589 7.72695 18.2353 8.05606 19.462 8.6844L15.1834 16.0748L6.95519 18.3488C6.80559 17.7504 6.74575 17.122 6.74575 16.4638ZM13.8968 25.051C10.7551 24.4825 8.21186 22.2684 7.19456 19.2165L14.944 17.0622L13.8968 25.051ZM15.4826 25.2006C15.2432 25.2006 15.0338 25.2006 14.7944 25.1707L15.8416 17.0323L23.8005 19.0968C22.6635 22.7172 19.3124 25.2006 15.4826 25.2006Z" fill="#FAFAFA"/>
<path d="M19.4621 8.7143L15.1835 16.1047L6.95531 18.3787C6.80571 17.7503 6.74586 17.122 6.74586 16.4937C6.74586 11.6764 10.6655 7.75684 15.4827 7.75684C16.859 7.75684 18.2354 8.08597 19.4621 8.7143Z" fill="#FFDE46"/>
<path d="M14.9441 17.092L13.8969 25.0509C10.7552 24.4824 8.21199 22.2683 7.19469 19.2164L14.9441 17.092Z" fill="#FFDE46"/>
<path d="M23.8007 19.0968C22.6638 22.7172 19.3126 25.2006 15.4828 25.2006C15.2434 25.2006 15.034 25.2006 14.7946 25.1706L15.8419 17.0322L23.8007 19.0968Z" fill="#FFDE46"/>
<path d="M23.1728 7.03885C23.083 6.97901 22.9334 6.94911 22.8437 6.97903C22.724 7.00895 22.6342 7.09869 22.5744 7.18846L17.9666 15.1474C17.9068 15.267 17.8769 15.4166 17.9367 15.5363C17.9965 15.656 18.0863 15.7757 18.2359 15.8056L27.1223 18.1095C27.1523 18.1095 27.2121 18.1394 27.242 18.1394C27.3318 18.1394 27.3916 18.1095 27.4814 18.0796C27.5711 18.0197 27.6609 17.93 27.6908 17.8103C27.9003 17.0323 27.99 16.1946 27.99 15.3867C27.99 11.9458 26.135 8.77425 23.1728 7.03885ZM26.9129 17.152L19.0438 15.1174L23.113 8.05616C25.5665 9.67187 27.0924 12.4246 27.0924 15.3867C27.0924 15.9851 27.0326 16.5536 26.9129 17.152Z" fill="#FAFAFA"/>
<path d="M27.0923 15.3867C27.0923 15.9851 27.0324 16.5835 26.9128 17.152L19.0436 15.1174L23.1128 8.05615C25.5663 9.67187 27.0923 12.4246 27.0923 15.3867Z" fill="#FF9F46"/>
</svg>
